HIERARCHY
ROOT Hips
{
    OFFSET 0.000000 0.000000 0.000000
    CHANNELS 6 Xposition Yposition Zposition Zrotation Xrotation Yrotation
        JOINT Chest
        {
            OFFSET -0.000000 32.910728 -0.000000
            CHANNELS 3 Zrotation Xrotation Yrotation
            JOINT Neck
            {
                OFFSET -0.000000 24.872103 0.000000
                CHANNELS 3 Zrotation Xrotation Yrotation
                JOINT Head
                {
                    OFFSET -0.000000 10.694444 0.000000
                    CHANNELS 3 Zrotation Xrotation Yrotation
                    End Site
                    {
                        OFFSET -0.000000 16.527781 0.000000
                    }
                }
            }
            JOINT LeftCollar
            {
                OFFSET -0.000000 24.872103 0.000000
                CHANNELS 3 Zrotation Xrotation Yrotation
                JOINT LeftShoulder
                {
                    OFFSET 20.500000 -0.000000 0.000000
                    CHANNELS 3 Zrotation Xrotation Yrotation
                    JOINT LeftElbow
                    {
                        OFFSET 20.261999 0.000000 0.000000
                        CHANNELS 3 Zrotation Xrotation Yrotation
                        JOINT LeftWrist
                        {
                            OFFSET 25.372869 0.000000 0.000000
                            CHANNELS 3 Zrotation Xrotation Yrotation
                            End Site
                            {
                                OFFSET 0.000000 -14.583331 0.000000
                            }
                        }
                    }
                }
            }
            JOINT RightCollar
            {
                OFFSET -0.000000 24.872103 0.000000
                CHANNELS 3 Zrotation Xrotation Yrotation
                JOINT RightShoulder
                {
                    OFFSET -20.500000 0.000000 0.000000
                    CHANNELS 3 Zrotation Xrotation Yrotation
                    JOINT RightElbow
                    {
                        OFFSET -20.261999 0.000000 0.000000
                        CHANNELS 3 Zrotation Xrotation Yrotation
                        JOINT RightWrist
                        {
                            OFFSET -25.372869 0.000000 0.000000
                            CHANNELS 3 Zrotation Xrotation Yrotation
                            End Site
                            {
                                OFFSET -0.000000 -14.583331 0.000000
                            }
                        }
                    }
                }
            }
        }
    JOINT LeftHip
    {
        OFFSET 11.666668 0.000000 0.000000
        CHANNELS 3 Zrotation Xrotation Yrotation
        JOINT LeftKnee
        {
            OFFSET -0.000000 -37.459236 0.000000
            CHANNELS 3 Zrotation Xrotation Yrotation
            JOINT LeftAnkle
            {
                OFFSET -0.000000 -38.972313 0.000000
                CHANNELS 3 Zrotation Xrotation Yrotation
                End Site
                {
                    OFFSET -0.000000 -4.861111 16.527781
                }
            }
        }
    }
    JOINT RightHip
    {
        OFFSET -11.666668 0.000000 0.000000
        CHANNELS 3 Zrotation Xrotation Yrotation
        JOINT RightKnee
        {
            OFFSET -0.000000 -37.459236 0.000000
            CHANNELS 3 Zrotation Xrotation Yrotation
            JOINT RightAnkle
            {
                OFFSET -0.000000 -38.972313 0.000000
                CHANNELS 3 Zrotation Xrotation Yrotation
                End Site
                {
                    OFFSET -0.000000 -4.861111 16.527781
                }
            }
        }
    }
}
MOTION
Frames:    9
Frame Time:    0.010000
115.324387    83.305557    -12.720236    3.978020    -4.025934    -0.833307    -10.030705    24.325607    29.535540    5.411431    -7.555902    -22.034033    0.060462    -15.463252    -22.384424    -23.155434    -1.872817    9.837699    -44.330231    69.401161    -6.219024    36.863148    -20.286371    -55.283325    121.732422    -7.843845    32.406570    28.755365    -3.685725    -14.950154    2.799857    51.657955    51.423645    -14.717052    -11.799852    79.025169    -63.553375    -12.044001    -0.022694    -6.030875    -37.565723    -13.537206    1.613363    56.795223    -2.339953    -12.626330    10.569413    -10.281039    4.061927    -1.372240    -17.895187    19.075592    44.215126    -30.633486    9.052662    -9.143386    13.757706    
115.001251    83.448387    -12.926441    3.604549    -3.765859    -1.647619    -9.899682    24.680626    28.625362    5.013865    -7.843166    -21.851461    0.302987    -15.504277    -22.155462    -22.782967    -1.947291    10.321145    -44.112663    70.685783    -7.203072    38.245003    -21.113743    -55.237503    120.029465    -5.994881    35.649067    28.369875    -3.755283    -15.409449    4.152672    51.790333    49.383804    -14.393409    -11.748533    79.743759    -65.191826    -11.321303    -0.374732    -5.369020    -36.973545    -13.136506    2.037962    56.576874    -2.857812    -10.690225    10.266344    -10.488338    2.028076    -3.650243    -18.295589    21.476519    48.303619    -31.393511    14.071638    -5.629921    14.173425    
114.685127    83.505096    -13.128633    3.205665    -3.521647    -2.539372    -9.683125    25.011042    27.747290    4.638142    -8.090742    -21.642002    0.450271    -15.632458    -21.910191    -22.495329    -2.021189    10.706872    -43.908306    71.712532    -8.122530    39.661983    -21.939266    -55.241066    118.264374    -4.156101    39.065132    28.001966    -3.819423    -15.862850    5.308214    51.852455    47.585083    -14.191607    -11.812266    80.391571    -66.638756    -10.613007    -0.728542    -4.630010    -36.320786    -12.499532    2.864163    56.236210    -4.001661    -9.168817    9.385271    -10.344692    0.014891    -6.023588    -18.826677    23.758093    52.557945    -31.771524    18.876419    -2.389323    13.793374    
114.372780    83.465874    -13.321182    2.792916    -3.316919    -3.502840    -9.403488    25.335014    26.924917    4.304861    -8.295216    -21.397331    0.488562    -15.869836    -21.643461    -22.312019    -2.080585    10.971985    -43.646038    72.421326    -8.996134    40.994686    -22.721390    -55.378605    116.510468    -2.401935    42.587490    27.659624    -3.886889    -16.317289    6.255477    51.861786    46.045689    -14.136183    -12.013938    80.937103    -67.854027    -9.956822    -1.042426    -3.809052    -35.603657    -11.629362    3.977906    55.788055    -5.680340    -8.086604    7.950435    -9.786829    -1.939688    -8.426049    -19.437521    25.886837    56.865654    -31.774639    23.368479    0.217243    12.735543    
114.060188    83.325127    -13.500232    2.373093    -3.175107    -4.526521    -9.086598    25.673321    26.156662    4.023071    -8.451792    -21.108088    0.428126    -16.223351    -21.347073    -22.244871    -2.140164    11.109889    -43.230610    72.813118    -9.872029    42.184101    -23.466124    -55.678028    114.793686    -0.831215    46.135860    27.354166    -3.960164    -16.769978    7.023020    51.829144    44.738338    -14.253695    -12.325276    81.365196    -68.834496    -9.381372    -1.297102    -2.905387    -34.829712    -10.568445    5.206223    55.261269    -7.698542    -7.379981    6.051874    -8.830617    -3.806314    -10.793942    -20.053535    27.888994    61.109726    -31.486654    27.567129    1.931912    11.150580    
113.743279    83.082489    -13.664898    1.949720    -3.114946    -5.590562    -8.757611    26.045923    25.417290    3.789041    -8.557904    -20.766624    0.302494    -16.682543    -21.009199    -22.308069    -2.187497    11.130578    -42.504108    72.900116    -10.857122    43.149437    -24.150408    -56.183929    113.165306    0.502806    49.623608    27.096500    -4.037809    -17.203897    7.688795    51.750782    43.588352    -14.484558    -12.698902    81.685829    -69.700775    -8.892520    -1.502529    -1.925658    -34.019775    -9.395136    6.356076    54.703510    -9.805296    -6.945306    3.831403    -7.549165    -5.567085    -13.073480    -20.593336    29.859356    65.175583    -31.082649    31.568125    2.619721    9.189610    
113.418472    82.743858    -13.817663    1.527352    -3.146529    -6.665725    -8.439890    26.465788    24.668047    3.590284    -8.614970    -20.369051    0.163549    -17.218674    -20.618893    -22.514946    -2.199513    11.052042    -41.255405    72.724152    -12.126766    43.860733    -24.778357    -56.882656    111.651512    1.538559    52.947472    26.897488    -4.109960    -17.590563    8.365414    51.602837    42.482738    -14.771099    -13.056182    81.922203    -70.499580    -8.492487    -1.623441    -0.887514    -33.207523    -8.209752    7.258938    54.176594    -11.752554    -6.685946    1.465389    -6.049311    -7.219931    -15.225196    -20.984533    31.969030    68.955788    -30.840813    35.475029    2.255965    7.010558    
113.082329    82.322052    -13.963541    1.113985    -3.269460    -7.716163    -8.152687    26.938137    23.867125    3.405705    -8.632229    -19.918512    0.075517    -17.786318    -20.168608    -22.857553    -2.230970    10.887443    -39.410698    72.407364    -13.750315    44.434959    -25.407793    -57.624233    110.204071    2.165000    56.008247    26.757713    -4.184663    -17.900909    9.153356    51.375706    41.331596    -15.060475    -13.355126    82.081299    -71.269440    -8.191058    -1.639488    0.182844    -32.436604    -7.106957    7.810423    53.745319    -13.352485    -6.539661    -0.861493    -4.453647    -8.777489    -17.224354    -21.172859    34.467945    72.351585    -31.141956    39.325138    0.907142    4.798137    
112.731346    81.836769    -14.107743    0.721300    -3.476322    -8.706599    -7.911408    27.464649    22.981237    3.213056    -8.626187    -19.421097    0.099854    -18.333406    -19.653320    -23.335344    -2.254951    10.641174    -36.943390    71.967743    -15.738916    44.855217    -25.961504    -58.412220    108.906105    2.445862    58.792065    26.680046    -4.247738    -18.111475    10.108020    51.053959    40.070648    -15.284858    -13.533460    82.200035    -72.078484    -7.997049    -1.582014    1.256040    -31.751045    -6.145339    7.991468    53.463554    -14.513843    -6.480919    -2.985153    -2.887561    -10.262250    -19.055542    -21.123137    37.662952    75.272346    -32.434246    43.042534    -1.279389    2.759521    
